<svg width="220" height="209" viewBox="0 0 220 209" fill="none" xmlns="http://www.w3.org/2000/svg">
<path fill-rule="evenodd" clip-rule="evenodd" d="M5.91526 184.189C10.5286 177.525 21.9879 150.201 30.9187 94.2221C37.8016 52.1527 79.9637 21.3184 116.856 28.8068C146.369 34.7974 158.432 49.8033 160.774 56.5573C161.969 60.0009 165.236 60.4649 166.661 55.4178L183.983 0L204.719 17.6811C206.014 19.096 207.455 22.7013 202.851 25.8026C198.334 30.2349 180.733 49.8601 172.497 59.1186C170.224 62.3545 171.309 66.6763 182.133 68.7827C196.192 71.5185 233.244 108.532 215.099 152.006C207.292 170.711 194.882 183.489 181.349 192.085C185.382 186.319 187.749 179.295 187.749 171.717C187.749 152.109 171.9 136.213 152.349 136.213C132.798 136.213 116.949 152.109 116.949 171.717C116.949 188.689 128.821 202.879 144.691 206.389C139.258 207.451 134.189 208.039 129.752 208.286C105.559 209.634 67.8932 210.982 5.91526 193.12C2.5874 192.064 -1.4756 188.802 0.535719 186.865C1.25496 186.172 1.85841 186.082 2.53134 185.981C3.4062 185.85 4.39848 185.702 5.91526 184.189Z" fill="#E7D75E" fill-opacity="0.3"/>
</svg>
