<svg width="1460" viewBox="0 0 1460 484" preserveAspectRatio="none" fill="none" xmlns="http://www.w3.org/2000/svg">
<path d="M1459.62 399.678C1454.33 404.491 1448.4 408.956 1441.86 413.068C1435.33 417.204 1428.16 420.991 1420.41 424.43C1394.47 435.924 1361.73 443.56 1322.45 447.233C1260.05 453.119 1179.06 449.256 1081.79 435.817C919.2 413.349 707.943 363.917 453.863 288.927C21.9562 161.441 -390.142 1.84272 -394.259 0.251958L-418.703 33.3688C-414.6 34.9783 -2.47818 194.565 429.419 322.044C683.502 397.05 894.766 446.472 1057.34 468.934C1154.62 482.373 1235.59 486.229 1298.01 480.366C1349.13 475.55 1389.15 464.077 1417.54 446.101C1424.02 442.005 1429.91 437.554 1435.18 432.785C1438.83 429.463 1442.19 425.992 1445.26 422.356C1446.64 420.719 1447.94 419.059 1449.18 417.368C1453.28 411.794 1456.78 405.892 1459.62 399.669L1459.62 399.678Z" fill="url(#paint0_linear_54_452)"/>
<defs>
<linearGradient id="paint0_linear_54_452" x1="1235.98" y1="712.152" x2="-172.74" y2="-306.709" gradientUnits="userSpaceOnUse">
<stop stop-color="#E52025" stop-opacity="0.6"/>
<stop offset="1" stop-color="#ED2C31"/>
</linearGradient>
</defs>
</svg>
