<svg xmlns="http://www.w3.org/2000/svg">
	<defs>
		<symbol id="coinGecko" viewBox="0 0 1080 1080">
			<path
				d="M536.6-1C238.3,0.4-2.3,243.2-1,541.4c1.4,298.2,244.2,538.9,542.4,537.6c298.2-1.4,538.9-244.2,537.6-542.4 C1077.6,238.3,834.8-2.3,536.6-1z"
				style="fill: var(--primary-color)"
			/>
			<path
				d="M627.6,1030.5 C606.7,884.3,734.3,741.2,806.3,668c16.3-16.6,41.6-39.5,65.1-63.8c93.4-87.3,112-191.7-79.2-243.9 c-36.2-10.5-73.8-25.4-111.8-40.4c-1.2-3.5-2.6-6.8-4.1-9.9c-4.4-7.5-12-16.2-23.6-26c-24.9-21.6-71.5-21-111.8-11.5 c-44.6-10.5-88.5-14.2-130.8-4.1c-184.9,50.9-214.6,141.1-221.8,249.8c-9.8,117.4-15.5,204.9-60,304.9 C72.8,743,40.1,646,39.7,541.2C38.5,265.5,261,40.9,536.8,39.7c275.8-1.2,500.3,221.3,501.6,497.1 C1039.4,783.1,862,988.6,627.6,1030.5z"
				fill="currentColor"
			/>
			<path
				d="M468.2,512.5c-53.3,0-96.6-43.2-96.6-96.5c0-53.3,43.2-96.5,96.6-96.5 c53.3,0,96.5,43.2,96.5,96.5C564.7,469.3,521.5,512.5,468.2,512.5z"
				fill="white"
				style="fill: var(--secondary-color, white)"
			/>
			<path
				d="M536.1,416.9c0,37.5-30.4,67.9-67.9,67.9c-37.5,0-67.9-30.4-67.9-67.9s30.4-67.9,67.9-67.9 C505.7,349,536.1,379.4,536.1,416.9z"
				style="fill: var(--tertiary-color)"
			/>
			<path
				d="M793,512.5c0-11.6,9.3-20.9,20.8-21 c11.6,0,20.9,9.3,21,20.8c0,11.5-9.3,21-20.8,21C802.5,533.4,793,524.1,793,512.5z"
				fill="white"
				style="fill: var(--tertiary-color, white)"
			/>
			<path
				d="M545.2,616.9l0.5-0.6l0.5-0.6c27.6,17.8,59,24,90.4,25 c31.5,0.8,63.5-1.5,95.1-7.9c31.5-6.5,62.5-16.2,92.4-28.6c16.8-6.9,33.5-14.5,49.4-23.4c0.1-0.1,0.2-0.1,0.3-0.2 c9.9-6,19.6-12.2,29.1-18.7c2.1-1.5,4.1-3,6-4.6l0.2,0.3l0.8,1c-24.3,22.1-53.2,38.5-82.6,53c-29.7,14-60.7,25.5-92.7,33.8 c-31.9,8.2-65.2,14.5-98.9,11.4C602.5,653.7,567.5,642.1,545.2,616.9z"
				fill="white"
				style="fill: var(--tertiary-color, white)"
			/>
		</symbol>
		<symbol
			id="discord"
			viewBox="0 0 127.14 96.36"
		>
			<path
				d="M107.7,8.07A105.15,105.15,0,0,0,81.47,0a72.06,72.06,0,0,0-3.36,6.83A97.68,97.68,0,0,0,49,6.83,72.37,72.37,0,0,0,45.64,0,105.89,105.89,0,0,0,19.39,8.09C2.79,32.65-1.71,56.6.54,80.21h0A105.73,105.73,0,0,0,32.71,96.36,77.7,77.7,0,0,0,39.6,85.25a68.42,68.42,0,0,1-10.85-5.18c.91-.66,1.8-1.34,2.66-2a75.57,75.57,0,0,0,64.32,0c.87.71,1.76,1.39,2.66,2a68.68,68.68,0,0,1-10.87,5.19,77,77,0,0,0,6.89,11.1A105.25,105.25,0,0,0,126.6,80.22h0C129.24,52.84,122.09,29.11,107.7,8.07ZM42.45,65.69C36.18,65.69,31,60,31,53s5-12.74,11.43-12.74S54,46,53.89,53,48.84,65.69,42.45,65.69Zm42.24,0C78.41,65.69,73.25,60,73.25,53s5-12.74,11.44-12.74S96.23,46,96.12,53,91.08,65.69,84.69,65.69Z"
			/>
		</symbol>
		<symbol id="github" viewBox="0 0 98 98">
			<path
				fill-rule="evenodd"
				clip-rule="evenodd"
				d="M48.854 0C21.839 0 0 22 0 49.217c0 21.756 13.993 40.172 33.405 46.69 2.427.49 3.316-1.059 3.316-2.362 0-1.141-.08-5.052-.08-9.127-13.59 2.934-16.42-5.867-16.42-5.867-2.184-5.704-5.42-7.17-5.42-7.17-4.448-3.015.324-3.015.324-3.015 4.934.326 7.523 5.052 7.523 5.052 4.367 7.496 11.404 5.378 14.235 4.074.404-3.178 1.699-5.378 3.074-6.6-10.839-1.141-22.243-5.378-22.243-24.283 0-5.378 1.94-9.778 5.014-13.2-.485-1.222-2.184-6.275.486-13.038 0 0 4.125-1.304 13.426 5.052a46.97 46.97 0 0 1 12.214-1.63c4.125 0 8.33.571 12.213 1.63 9.302-6.356 13.427-5.052 13.427-5.052 2.67 6.763.97 11.816.485 13.038 3.155 3.422 5.015 7.822 5.015 13.2 0 18.905-11.404 23.06-22.324 24.283 1.78 1.548 3.316 4.481 3.316 9.126 0 6.6-.08 11.897-.08 13.526 0 1.304.89 2.853 3.316 2.364 19.412-6.52 33.405-24.935 33.405-46.691C97.707 22 75.788 0 48.854 0z"
			/>
		</symbol>
		<symbol id="linktree" viewBox="0 0 40 48">
			<rect x="16.5586" width="7.35938" height="23.918"/>
			<rect x="16.5586" width="7.35938" height="23.918"/>
			<rect x="31.5435" y="2.88086" width="6.51209" height="39.5184" transform="rotate(45 31.5435 2.88086)"/>
			<rect x="3.80353" y="7.63037" width="6.51209" height="39.5184" transform="rotate(-45 3.80353 7.63037)"/>
			<rect y="22.0781" width="6.43945" height="39.5566" transform="rotate(-90 0 22.0781)"/>
			<rect x="16.5586" y="32.1973" width="7.35938" height="15.6387"/>
		</symbol>
		<symbol
			id="telegram"
			viewBox="0 0 1000 1000"
		>
			<circle cx="500" cy="500" r="500"/>
			<path
				d="M226.328419,494.722069 C372.088573,431.216685 469.284839,389.350049 517.917216,369.122161 C656.772535,311.36743 685.625481,301.334815 704.431427,301.003532 C708.567621,300.93067 717.815839,301.955743 723.806446,306.816707 C728.864797,310.92121 730.256552,316.46581 730.922551,320.357329 C731.588551,324.248848 732.417879,333.113828 731.758626,340.040666 C724.234007,419.102486 691.675104,610.964674 675.110982,699.515267 C668.10208,736.984342 654.301336,749.547532 640.940618,750.777006 C611.904684,753.448938 589.856115,731.588035 561.733393,713.153237 C517.726886,684.306416 492.866009,666.349181 450.150074,638.200013 C400.78442,605.66878 432.786119,587.789048 460.919462,558.568563 C468.282091,550.921423 596.21508,434.556479 598.691227,424.000355 C599.00091,422.680135 599.288312,417.758981 596.36474,415.160431 C593.441168,412.561881 589.126229,413.450484 586.012448,414.157198 C581.598758,415.158943 511.297793,461.625274 375.109553,553.556189 C355.154858,567.258623 337.080515,573.934908 320.886524,573.585046 C303.033948,573.199351 268.692754,563.490928 243.163606,555.192408 C211.851067,545.013936 186.964484,539.632504 189.131547,522.346309 C190.260287,513.342589 202.659244,504.134509 226.328419,494.722069 Z"
				fill="currentColor"
			/>
		</symbol>
		<symbol
			id="twitter"
			viewBox="0 0 1200 1227"
		>
			<path
				d="M714.163 519.284L1160.89 0H1055.03L667.137 450.887L357.328 0H0L468.492 681.821L0 1226.37H105.866L515.491 750.218L842.672 1226.37H1200L714.137 519.284H714.163ZM569.165 687.828L521.697 619.934L144.011 79.6944H306.615L611.412 515.685L658.88 583.579L1055.08 1150.3H892.476L569.165 687.854V687.828Z"
			/>
		</symbol>
	</defs>
</svg>